<?xml version="1.0" encoding="utf-8"?>
<!-- Generator: Adobe Illustrator 16.0.0, SVG Export Plug-In . SVG Version: 6.00 Build 0)  -->
<!DOCTYPE svg PUBLIC "-//W3C//DTD SVG 1.1//EN" "http://www.w3.org/Graphics/SVG/1.1/DTD/svg11.dtd">
<svg version="1.1" id="Layer_1" xmlns="http://www.w3.org/2000/svg" xmlns:xlink="http://www.w3.org/1999/xlink" x="0px" y="0px"
	 width="140px" height="140px" viewBox="0 0 140 140" enable-background="new 0 0 140 140" xml:space="preserve">
<g>
	<path fill="#FFFFFF" d="M99.254,138.899h22.125v-16.846C115.227,129.361,107.675,135.067,99.254,138.899z"/>
	<path fill="#FFFFFF" d="M21.729,121.67v17.229h22.449C35.611,134.999,27.939,129.163,21.729,121.67z"/>
	<path fill="#FFFFFF" d="M71.516,138.899c-18.797,0-36.197-8.563-47.739-23.493c-8.23-10.645-12.579-23.379-12.579-36.826
		c0-33.259,27.059-60.318,60.318-60.318c33.261,0,60.319,27.059,60.319,60.318c0,13.447-4.35,26.182-12.579,36.826
		C107.715,130.336,90.313,138.899,71.516,138.899z M71.516,33.067c-25.187,0-45.678,20.491-45.678,45.678
		c0,25.188,20.491,45.679,45.678,45.679c25.188,0,45.678-20.49,45.678-45.679C117.193,53.558,96.703,33.067,71.516,33.067z"/>
	<path fill="#FFFFFF" d="M71.516,22.284c-31.043,0-56.298,25.254-56.298,56.296c0,12.931,4.384,24.853,11.74,34.367
		c10.305,13.33,26.445,21.931,44.558,21.931c18.114,0,34.255-8.601,44.558-21.931c7.355-9.515,11.74-21.437,11.74-34.367
		C127.813,47.538,102.56,22.284,71.516,22.284z M71.516,128.443c-27.447,0-49.7-22.25-49.7-49.698s22.252-49.699,49.7-49.699
		c27.448,0,49.698,22.251,49.698,49.699S98.964,128.443,71.516,128.443z"/>
	<path fill="#FFFFFF" d="M75.938,77.763c0,2.438-2.16,4.414-4.825,4.414h-1.34c-2.664,0-4.825-1.976-4.825-4.414V52.01
		c0-2.439,2.161-4.415,4.825-4.415h1.34c2.665,0,4.825,1.976,4.825,4.415V77.763z"/>
	<path fill="#FFFFFF" d="M70.628,82.177c-3.136,0-5.68-2.16-5.68-4.824v-1.34c0-2.666,2.544-4.827,5.68-4.827h33.141
		c3.137,0,5.681,2.161,5.681,4.827v1.34c0,2.664-2.544,4.824-5.681,4.824H70.628z"/>
	<path fill="#FFFFFF" d="M14.288,7.436C3.032,16.12,0.949,32.284,9.633,43.54l40.76-31.45C41.708,0.833,25.542-1.25,14.288,7.436z"
		/>
	<path fill="#FFFFFF" d="M126.832,7.436c11.256,8.684,13.34,24.848,4.654,36.104L90.729,12.09
		C99.413,0.833,115.577-1.25,126.832,7.436z"/>
</g>
</svg>
