<?xml version="1.0" encoding="utf-8"?>
<!-- Generator: Adobe Illustrator 16.0.0, SVG Export Plug-In . SVG Version: 6.00 Build 0)  -->
<!DOCTYPE svg PUBLIC "-//W3C//DTD SVG 1.1//EN" "http://www.w3.org/Graphics/SVG/1.1/DTD/svg11.dtd">
<svg version="1.1" id="Layer_1" xmlns="http://www.w3.org/2000/svg" xmlns:xlink="http://www.w3.org/1999/xlink" x="0px" y="0px"
	 width="160px" height="190px" viewBox="0 0 160 190" enable-background="new 0 0 160 190" xml:space="preserve">
<g>
	<path fill="#FFFFFF" d="M108.254,179.898h22.125v-16.846C124.227,170.361,116.675,176.066,108.254,179.898z"/>
	<path fill="#FFFFFF" d="M30.729,162.67v17.229h22.449C44.611,175.999,36.939,170.163,30.729,162.67z"/>
	<path fill="#FFFFFF" d="M80.516,179.898c-18.797,0-36.197-8.563-47.739-23.492c-8.23-10.646-12.579-23.379-12.579-36.826
		c0-33.259,27.059-60.318,60.317-60.318c33.262,0,60.319,27.059,60.319,60.318c0,13.447-4.351,26.182-12.579,36.826
		C116.715,171.336,99.313,179.898,80.516,179.898z M80.516,74.067c-25.187,0-45.678,20.491-45.678,45.678
		c0,25.188,20.491,45.679,45.678,45.679c25.188,0,45.678-20.49,45.678-45.679C126.193,94.558,105.703,74.067,80.516,74.067z"/>
	<path fill="#FFFFFF" d="M80.516,63.284c-31.042,0-56.298,25.254-56.298,56.296c0,12.931,4.384,24.854,11.74,34.367
		c10.305,13.33,26.445,21.931,44.558,21.931c18.114,0,34.256-8.601,44.559-21.931c7.355-9.516,11.74-21.438,11.74-34.367
		C136.813,88.538,111.561,63.284,80.516,63.284z M80.516,169.443c-27.447,0-49.7-22.25-49.7-49.698s22.252-49.699,49.7-49.699
		c27.448,0,49.698,22.251,49.698,49.699S107.964,169.443,80.516,169.443z"/>
	<path fill="#FFFFFF" d="M84.938,118.764c0,2.438-2.16,4.413-4.824,4.413h-1.34c-2.664,0-4.825-1.976-4.825-4.413V93.01
		c0-2.439,2.161-4.415,4.825-4.415h1.34c2.664,0,4.824,1.976,4.824,4.415V118.764z"/>
	<path fill="#FFFFFF" d="M79.628,123.177c-3.136,0-5.68-2.159-5.68-4.823v-1.34c0-2.666,2.544-4.828,5.68-4.828h33.142
		c3.137,0,5.681,2.162,5.681,4.828v1.34c0,2.664-2.544,4.823-5.681,4.823H79.628z"/>
	<path fill="#FFFFFF" d="M23.288,48.436C12.032,57.12,9.949,73.284,18.633,84.54l40.76-31.45
		C50.708,41.833,34.542,39.75,23.288,48.436z"/>
	<path fill="#FFFFFF" d="M135.832,48.436c11.256,8.684,13.34,24.848,4.654,36.104L99.729,53.09
		C108.413,41.833,124.577,39.75,135.832,48.436z"/>
</g>
</svg>
