<?xml version="1.0" encoding="utf-8"?>
<!-- Generator: Adobe Illustrator 16.0.0, SVG Export Plug-In . SVG Version: 6.00 Build 0)  -->
<!DOCTYPE svg PUBLIC "-//W3C//DTD SVG 1.1//EN" "http://www.w3.org/Graphics/SVG/1.1/DTD/svg11.dtd">
<svg version="1.1" id="Layer_1" xmlns="http://www.w3.org/2000/svg" xmlns:xlink="http://www.w3.org/1999/xlink" x="0px" y="0px"
	 width="170px" height="450px" viewBox="0 0 170 450" enable-background="new 0 0 170 450" xml:space="preserve">
<g>
	<path fill="#FFFFFF" d="M114.254,376.898h22.125v-16.846C130.227,367.361,122.675,373.066,114.254,376.898z"/>
	<path fill="#FFFFFF" d="M36.729,359.67v17.229h22.449C50.611,372.999,42.939,367.163,36.729,359.67z"/>
	<path fill="#FFFFFF" d="M86.516,376.898c-18.797,0-36.197-8.563-47.739-23.492c-8.23-10.646-12.579-23.379-12.579-36.826
		c0-33.26,27.059-60.318,60.317-60.318c33.262,0,60.319,27.059,60.319,60.318c0,13.447-4.351,26.182-12.579,36.826
		C122.715,368.336,105.313,376.898,86.516,376.898z M86.516,271.066c-25.187,0-45.678,20.492-45.678,45.679
		c0,25.188,20.491,45.679,45.678,45.679c25.188,0,45.678-20.49,45.678-45.679C132.193,291.559,111.703,271.066,86.516,271.066z"/>
	<path fill="#FFFFFF" d="M86.516,260.284c-31.042,0-56.298,25.254-56.298,56.296c0,12.931,4.384,24.854,11.74,34.367
		c10.305,13.33,26.445,21.931,44.558,21.931c18.114,0,34.256-8.601,44.559-21.931c7.355-9.516,11.74-21.438,11.74-34.367
		C142.813,285.538,117.561,260.284,86.516,260.284z M86.516,366.443c-27.447,0-49.7-22.25-49.7-49.698s22.252-49.699,49.7-49.699
		c27.448,0,49.698,22.251,49.698,49.699S113.964,366.443,86.516,366.443z"/>
	<path fill="#FFFFFF" d="M90.938,315.764c0,2.438-2.16,4.413-4.824,4.413h-1.34c-2.664,0-4.825-1.976-4.825-4.413V290.01
		c0-2.439,2.161-4.414,4.825-4.414h1.34c2.664,0,4.824,1.975,4.824,4.414V315.764z"/>
	<path fill="#FFFFFF" d="M85.628,320.177c-3.136,0-5.68-2.159-5.68-4.823v-1.34c0-2.666,2.544-4.828,5.68-4.828h33.142
		c3.137,0,5.681,2.162,5.681,4.828v1.34c0,2.664-2.544,4.823-5.681,4.823H85.628z"/>
	<path fill="#FFFFFF" d="M29.288,245.436c-11.256,8.685-13.339,24.849-4.655,36.104l40.76-31.45
		C56.708,238.833,40.542,236.75,29.288,245.436z"/>
	<path fill="#FFFFFF" d="M141.832,245.436c11.256,8.685,13.34,24.849,4.654,36.104l-40.758-31.45
		C114.413,238.833,130.577,236.75,141.832,245.436z"/>
</g>
</svg>
