<?xml version="1.0" encoding="utf-8"?>
<!-- Generator: Adobe Illustrator 16.0.0, SVG Export Plug-In . SVG Version: 6.00 Build 0)  -->
<!DOCTYPE svg PUBLIC "-//W3C//DTD SVG 1.1//EN" "http://www.w3.org/Graphics/SVG/1.1/DTD/svg11.dtd">
<svg version="1.1" id="Layer_1" xmlns="http://www.w3.org/2000/svg" xmlns:xlink="http://www.w3.org/1999/xlink" x="0px" y="0px"
	 width="200px" height="200px" viewBox="0 0 200 200" enable-background="new 0 0 200 200" xml:space="preserve">
<path display="none" fill="none" d="M80.373,76.842L80.373,76.842c0-10.165-8.242-18.409-18.41-18.409
	c-10.167,0-18.408,8.244-18.408,18.409l0,0h11.046h25.505H80.373z"/>
<path display="none" fill="none" d="M132.643,58.433c-7.306,0-13.597,4.266-16.567,10.432c-1.166,2.416-1.839,5.115-1.839,7.977l0,0
	h24.529h12.285l0,0C151.051,66.677,142.811,58.433,132.643,58.433z"/>
<path fill="#FFFFFF" d="M100.75,3C45.936,3,1.5,47.1,1.5,101.5c0,54.4,44.436,98.5,99.25,98.5S200,155.9,200,101.5
	C200,47.1,155.564,3,100.75,3z M66.716,60.164c11.725,0,21.23,9.434,21.23,21.07H45.486C45.486,69.598,54.992,60.164,66.716,60.164z
	 M130.638,137.318h-57.52v-6.008h57.52V137.318z M111.863,81.235c0-6.537,3.002-12.379,7.71-16.244
	c0.143-0.195,0.279-0.393,0.432-0.58c-0.062,0.126-0.117,0.257-0.175,0.387c3.636-2.894,8.243-4.635,13.266-4.635
	c11.725,0,21.229,9.434,21.229,21.07L111.863,81.235L111.863,81.235z"/>
<path fill="#F70000" d="M116.072,68.865c-0.135,0.167-0.256,0.344-0.383,0.518c0.072-0.061,0.152-0.113,0.228-0.172
	C115.971,69.096,116.018,68.979,116.072,68.865z"/>
</svg>
