<?xml version="1.0" encoding="utf-8"?>
<!-- Generator: Adobe Illustrator 16.0.0, SVG Export Plug-In . SVG Version: 6.00 Build 0)  -->
<!DOCTYPE svg PUBLIC "-//W3C//DTD SVG 1.1//EN" "http://www.w3.org/Graphics/SVG/1.1/DTD/svg11.dtd">
<svg version="1.1" id="Layer_1" xmlns="http://www.w3.org/2000/svg" xmlns:xlink="http://www.w3.org/1999/xlink" x="0px" y="0px"
	 width="200px" height="200px" viewBox="0 0 200 200" enable-background="new 0 0 200 200" xml:space="preserve">
<path display="none" fill="none" d="M80.373,76.842L80.373,76.842c0-10.165-8.242-18.409-18.41-18.409
	c-10.167,0-18.408,8.244-18.408,18.409l0,0h11.046h25.505H80.373z"/>
<path display="none" fill="none" d="M132.643,58.433c-7.306,0-13.597,4.266-16.568,10.432c-1.166,2.416-1.838,5.115-1.838,7.977l0,0
	h24.529h12.285l0,0C151.051,66.677,142.811,58.433,132.643,58.433z"/>
<path fill="#FFFFFF" d="M99,14c-48.601,0-88,39.399-88,88c0,48.601,39.399,88,88,88c48.601,0,88-39.399,88-88
	C187,53.399,147.601,14,99,14z M68.824,65.07c10.396,0,18.824,8.428,18.824,18.824H50C50,73.499,58.428,65.07,68.824,65.07z
	 M125.5,134h-51v-5.367h51V134z M108.854,83.895c0-5.84,2.661-11.059,6.836-14.512c0.126-0.174,0.248-0.351,0.382-0.518
	c-0.055,0.113-0.103,0.23-0.155,0.346c3.224-2.585,7.309-4.141,11.762-4.141c10.396,0,18.823,8.428,18.823,18.824H108.854z"/>
<path fill="#F70000" d="M116.072,68.865c-0.134,0.167-0.256,0.344-0.382,0.518c0.072-0.061,0.152-0.113,0.227-0.172
	C115.97,69.096,116.018,68.979,116.072,68.865z"/>
<path fill="#FFFFFF" d="M114.234,76.842c0-2.728,0.616-5.304,1.683-7.631c-0.074,0.059-0.154,0.111-0.227,0.172
	c-1.521,2.098-2.432,4.669-2.432,7.459H114.234z"/>
</svg>
