<?xml version="1.0" encoding="utf-8"?>
<!-- Generator: Adobe Illustrator 16.0.0, SVG Export Plug-In . SVG Version: 6.00 Build 0)  -->
<!DOCTYPE svg PUBLIC "-//W3C//DTD SVG 1.1//EN" "http://www.w3.org/Graphics/SVG/1.1/DTD/svg11.dtd">
<svg version="1.1" id="Layer_1" xmlns="http://www.w3.org/2000/svg" xmlns:xlink="http://www.w3.org/1999/xlink" x="0px" y="0px"
	 width="200px" height="200px" viewBox="0 0 200 200" enable-background="new 0 0 200 200" xml:space="preserve">
<path fill="none" d="M80.373,76.842L80.373,76.842c0-10.165-8.242-18.409-18.41-18.409c-10.167,0-18.408,8.244-18.408,18.409l0,0
	h11.046h25.505H80.373z"/>
<path fill="none" d="M132.643,58.433c-7.306,0-13.597,4.266-16.569,10.432c-1.166,2.416-1.838,5.115-1.838,7.977l0,0h24.529h12.286
	l0,0C151.051,66.677,142.811,58.433,132.643,58.433z"/>
<path fill="none" d="M116.072,68.865c-1.756,2.185-2.813,4.956-2.813,7.977l0,0h0.975l0,0
	C114.234,73.98,114.906,71.281,116.072,68.865z"/>
<path fill="#FFFFFF" d="M100,9.146c-50.421,0-91.292,40.872-91.292,91.292c0,50.421,40.871,91.292,91.292,91.292
	c50.418,0,91.292-40.87,91.292-91.292C191.292,50.018,150.418,9.146,100,9.146z M45.297,76.842L45.297,76.842
	c0-10.165,8.241-18.409,18.408-18.409c10.168,0,18.41,8.244,18.41,18.409l0,0h-0.267H56.343H45.297z M136.128,134.895H62.693V124
	h73.435V134.895z M152.794,76.842h-12.286h-24.53h-0.974l0,0c0-3.021,1.056-5.792,2.813-7.977
	c2.974-6.166,9.265-10.432,16.569-10.432C144.554,58.433,152.794,66.677,152.794,76.842L152.794,76.842z"/>
</svg>
