<?xml version="1.0" encoding="utf-8"?>
<!-- Generator: Adobe Illustrator 16.0.4, SVG Export Plug-In . SVG Version: 6.00 Build 0)  -->
<!DOCTYPE svg PUBLIC "-//W3C//DTD SVG 1.1//EN" "http://www.w3.org/Graphics/SVG/1.1/DTD/svg11.dtd">
<svg version="1.1" id="Layer_1" xmlns="http://www.w3.org/2000/svg" xmlns:xlink="http://www.w3.org/1999/xlink" x="0px" y="0px"
	 width="26px" height="26px" viewBox="0 0 26 26" enable-background="new 0 0 26 26" xml:space="preserve">
<path d="M11.948,16.348c0.087,1.508-0.227,2.105-1.276,2.273C9.622,18.789,8.606,17.885,8.4,16.6
	c-0.094-0.59-0.188-1.789-0.308-2.314l-0.901-2.536c-0.052-0.224-0.646-1.292-0.74-1.757C6.26,9.047,6.87,8.127,7.814,7.935
	c0,0,1.404-0.283,1.651-0.333c0.247-0.051,0.984-0.099,0.984-0.099c1.012,0,1.5,0.523,1.5,1.535c0,0.587-1.04,1.49-1.04,1.49
	s-1.472,1.417-0.957,2.47C10.465,14.051,11.637,14.355,11.948,16.348z M10.773,7.244c0.418,0,0.758-0.499,0.758-1.112
	c0-0.613-0.34-1.11-0.758-1.11c-0.421,0-0.761,0.498-0.761,1.11C10.013,6.745,10.352,7.244,10.773,7.244z M9.158,7.131
	C9.427,7.093,9.6,6.743,9.543,6.349c-0.056-0.394-0.32-0.682-0.589-0.643C8.686,5.744,8.513,6.094,8.569,6.488
	C8.625,6.881,8.889,7.169,9.158,7.131z M8.007,7.443c0.195-0.046,0.298-0.314,0.231-0.598C8.17,6.561,7.958,6.367,7.764,6.413
	c-0.194,0.046-0.298,0.313-0.23,0.598C7.601,7.295,7.812,7.489,8.007,7.443z M7.076,8.053c0.17-0.067,0.228-0.324,0.129-0.573
	S6.889,7.083,6.719,7.151S6.491,7.475,6.59,7.724S6.906,8.12,7.076,8.053z M6.062,8.125C5.949,8.169,5.91,8.339,5.975,8.505
	c0.065,0.165,0.21,0.263,0.323,0.219c0.113-0.044,0.152-0.215,0.087-0.38C6.319,8.178,6.175,8.08,6.062,8.125z M18,10.53
	c0,0-1.373-0.403-1.615-0.473c-0.242-0.072-0.972-0.183-0.972-0.183c-1.009-0.086-1.539,0.394-1.625,1.402
	c-0.052,0.583,0.907,1.572,0.907,1.572s1.346,1.538,0.742,2.542c-0.602,1.004-1.795,1.209-2.274,3.166
	c-0.216,1.493,0.047,2.116,1.075,2.375c1.033,0.258,2.121-0.558,2.438-1.818c0.145-0.582,0.34-1.768,0.506-2.281l1.114-2.449
	c0.071-0.22,0.754-1.232,0.888-1.687C19.454,11.771,18.924,10.801,18,10.53z M15.111,9.586c0.418,0.036,0.799-0.43,0.852-1.042
	s-0.243-1.136-0.662-1.172c-0.418-0.036-0.799,0.43-0.852,1.042S14.693,9.551,15.111,9.586z M16.73,9.612
	c0.264,0.061,0.551-0.204,0.641-0.59c0.088-0.387-0.053-0.75-0.317-0.811s-0.551,0.204-0.64,0.59
	C16.324,9.188,16.467,9.551,16.73,9.612z M17.85,10.021c0.189,0.062,0.416-0.112,0.508-0.389s0.012-0.553-0.177-0.615
	c-0.189-0.062-0.417,0.112-0.509,0.389S17.66,9.959,17.85,10.021z M19.158,9.843c-0.165-0.082-0.395,0.045-0.514,0.285
	s-0.083,0.5,0.082,0.582c0.164,0.082,0.395-0.045,0.514-0.285S19.322,9.924,19.158,9.843z M19.73,10.867
	c-0.109-0.054-0.262,0.031-0.342,0.19c-0.078,0.159-0.055,0.333,0.055,0.387c0.109,0.055,0.262-0.03,0.342-0.19
	C19.864,11.095,19.84,10.922,19.73,10.867z"/>
</svg>
