<?xml version="1.0" encoding="utf-8"?>
<!-- Generator: Adobe Illustrator 16.0.0, SVG Export Plug-In . SVG Version: 6.00 Build 0)  -->
<!DOCTYPE svg PUBLIC "-//W3C//DTD SVG 1.1//EN" "http://www.w3.org/Graphics/SVG/1.1/DTD/svg11.dtd">
<svg version="1.1" id="Layer_1" xmlns="http://www.w3.org/2000/svg" xmlns:xlink="http://www.w3.org/1999/xlink" x="0px" y="0px"
	 width="223px" height="311px" viewBox="0 0 223 311" enable-background="new 0 0 223 311" xml:space="preserve">
<g>
	<path fill="#FFFFFF" d="M112.297,204.07c1.535,26.608-4.008,37.156-22.525,40.123c-18.528,2.964-36.459-12.995-40.096-35.677
		c-1.655-10.408-3.319-31.575-5.438-40.829l-15.899-44.758c-0.914-3.955-11.4-22.801-13.055-31.004
		c-3.378-16.702,7.393-32.937,24.05-36.322c0,0,24.775-4.999,29.135-5.878c4.36-0.904,17.373-1.749,17.373-1.749
		c17.856,0,26.474,9.229,26.474,27.094c0,10.356-18.354,26.291-18.354,26.291s-25.982,25.007-16.89,43.594
		C86.118,163.535,106.809,168.911,112.297,204.07z"/>
	<path fill="#FFFFFF" d="M91.556,43.41c7.375,0,13.373-8.809,13.373-19.631c0-10.813-5.997-19.588-13.373-19.588
		c-7.428,0-13.425,8.789-13.425,19.588C78.147,34.602,84.127,43.41,91.556,43.41z"/>
	<path fill="#FFFFFF" d="M63.059,41.41c4.74-0.673,7.798-6.842,6.79-13.797c-0.991-6.954-5.645-12.037-10.392-11.349
		c-4.73,0.673-7.781,6.842-6.799,13.798C53.648,36.998,58.309,42.083,63.059,41.41z"/>
	<path fill="#FFFFFF" d="M42.739,46.916c3.446-0.81,5.265-5.54,4.075-10.556c-1.198-5.006-4.937-8.427-8.359-7.617
		c-3.429,0.81-5.265,5.522-4.057,10.548C35.578,44.305,39.299,47.735,42.739,46.916z"/>
	<path fill="#FFFFFF" d="M26.313,57.68c2.999-1.18,4.025-5.714,2.276-10.108s-5.577-7.006-8.574-5.808
		c-3.008,1.197-4.026,5.721-2.285,10.116C19.479,56.276,23.306,58.868,26.313,57.68z"/>
	<path fill="#FFFFFF" d="M8.415,58.955c-1.99,0.776-2.678,3.773-1.533,6.704c1.147,2.912,3.706,4.644,5.696,3.868
		c2-0.774,2.688-3.799,1.533-6.712C12.948,59.886,10.407,58.162,8.415,58.955z"/>
	<g>
		<path fill="#FFFFFF" d="M185.245,115.083c0,0-24.81-4.729-29.185-5.54c-4.377-0.853-17.379-1.551-17.379-1.551
			c-17.867,0.222-26.358,9.561-26.139,27.411c0.09,10.329,18.63,26.062,18.63,26.062s26.274,24.699,17.397,43.382
			c-8.862,18.668-29.454,24.315-34.52,59.514c-1.241,26.58,4.449,37.071,22.958,39.872c18.59,2.756,36.299-13.45,39.695-36.12
			c1.54-10.473,2.936-31.646,4.974-40.938l15.37-44.932c0.877-3.979,11.13-22.933,12.698-31.154
			C212.914,134.384,201.936,118.25,185.245,115.083z"/>
		<path fill="#FFFFFF" d="M132.888,103.451c7.401-0.083,13.294-8.918,13.171-19.762c-0.124-10.838-6.202-19.534-13.641-19.45
			c-7.405,0.084-13.295,8.919-13.172,19.765C119.371,94.839,125.483,103.55,132.888,103.451z"/>
		<path fill="#FFFFFF" d="M161.371,101.127c4.736,0.621,9.325-4.52,10.24-11.458c0.88-6.951-2.214-13.083-6.947-13.702
			c-4.753-0.619-9.343,4.531-10.243,11.459C153.508,94.381,156.635,100.508,161.371,101.127z"/>
		<path fill="#FFFFFF" d="M181.729,106.397c3.435,0.764,7.116-2.679,8.254-7.707c1.152-5.023-0.727-9.731-4.142-10.497
			c-3.435-0.765-7.15,2.68-8.288,7.709C176.416,100.923,178.297,105.632,181.729,106.397z"/>
		<path fill="#FFFFFF" d="M204.41,101.021c-3.041-1.156-6.854,1.475-8.534,5.889c-1.679,4.425-0.617,8.927,2.438,10.083
			c3.022,1.16,6.853-1.465,8.534-5.89C208.529,106.688,207.43,102.164,204.41,101.021z"/>
		<path fill="#FFFFFF" d="M216.218,118.034c-2.015-0.765-4.562,0.99-5.678,3.922c-1.101,2.92-0.406,5.944,1.623,6.698
			c2,0.783,4.547-0.971,5.679-3.922C218.941,121.802,218.232,118.806,216.218,118.034z"/>
	</g>
</g>
</svg>
