<?xml version="1.0" encoding="utf-8"?>
<!-- Generator: Adobe Illustrator 16.0.0, SVG Export Plug-In . SVG Version: 6.00 Build 0)  -->
<!DOCTYPE svg PUBLIC "-//W3C//DTD SVG 1.1//EN" "http://www.w3.org/Graphics/SVG/1.1/DTD/svg11.dtd">
<svg version="1.1" id="Layer_1" xmlns="http://www.w3.org/2000/svg" xmlns:xlink="http://www.w3.org/1999/xlink" x="0px" y="0px"
	 width="140px" height="140px" viewBox="0 0 140 140" enable-background="new 0 0 140 140" xml:space="preserve">
<path fill="#FFFFFF" d="M70.869,3.226c-37.073,0-67.126,30.054-67.126,67.127c0,37.075,30.054,67.129,67.126,67.129
	c37.074,0,67.131-30.055,67.131-67.129C138,33.28,107.943,3.226,70.869,3.226z M36.446,44.655l-0.229,1.22h-4.446l0.263-1.719
	c1.148-7.538,7.774-13.223,15.41-13.223c7.636,0,14.26,5.685,15.408,13.223l0.264,1.719h-6.588l-0.229-1.22
	c-0.891-4.771-5.064-8.235-9.927-8.235C41.512,36.419,37.337,39.883,36.446,44.655z M102.043,74.49
	C97.8,89.454,87.051,99.15,72.201,99.15h-0.07c-16.123,0-27.083-12.93-32.174-25.856c-0.141-0.241,0.07-1.079,0.283-1.438
	c0.071-0.119,0.141-0.119,0.283,0C46.958,81.913,57.967,92.53,72.746,92.53c13.506,0,23.992-9.66,28.589-19.837
	c0.142-0.237,0.212-0.237,0.354-0.118C101.9,72.814,102.113,74.131,102.043,74.49z M106.425,45.875l-0.229-1.22
	c-0.893-4.771-5.066-8.235-9.928-8.235c-4.86,0-9.035,3.464-9.927,8.235l-0.228,1.22h-6.588l0.263-1.719
	c1.147-7.538,7.771-13.223,15.408-13.223c7.636,0,14.262,5.685,15.41,13.223l0.263,1.719H106.425z"/>
</svg>
