<?xml version="1.0" encoding="utf-8"?>
<!-- Generator: Adobe Illustrator 16.0.0, SVG Export Plug-In . SVG Version: 6.00 Build 0)  -->
<!DOCTYPE svg PUBLIC "-//W3C//DTD SVG 1.1//EN" "http://www.w3.org/Graphics/SVG/1.1/DTD/svg11.dtd">
<svg version="1.1" id="Layer_1" xmlns="http://www.w3.org/2000/svg" xmlns:xlink="http://www.w3.org/1999/xlink" x="0px" y="0px"
	 width="160px" height="160px" viewBox="0 0 160 160" enable-background="new 0 0 160 160" xml:space="preserve">
<circle fill="none" cx="104.337" cy="59.867" r="10.971"/>
<circle fill="none" cx="53.869" cy="59.867" r="10.971"/>
<path fill="#FFFFFF" d="M80.456,1.624c-43.377,0-78.542,35.165-78.542,78.542c0,43.38,35.165,78.543,78.542,78.543
	c43.378,0,78.544-35.163,78.544-78.543C159,36.788,123.834,1.624,80.456,1.624z M104.337,48.896c6.062,0,10.972,4.912,10.972,10.971
	c0,6.058-4.912,10.971-10.972,10.971c-6.062,0-10.972-4.913-10.972-10.971C93.365,53.808,98.275,48.896,104.337,48.896z
	 M53.869,48.896c6.06,0,10.971,4.912,10.971,10.971c0,6.059-4.912,10.971-10.971,10.971c-6.06,0-10.972-4.913-10.972-10.971
	C42.897,53.808,47.809,48.896,53.869,48.896z M107.5,119.36h-1.333c-5.944-7.827-18.203-13.106-27.049-13.106
	c-8.844,0-20.673,5.279-26.618,13.106H42.088l1.623-2.961c7.854-14.33,21.217-22.886,35.746-22.886s27.892,8.556,35.745,22.886
	l1.623,2.961H107.5z"/>
</svg>
