<?xml version="1.0" encoding="utf-8"?>
<!-- Generator: Adobe Illustrator 16.0.0, SVG Export Plug-In . SVG Version: 6.00 Build 0)  -->
<!DOCTYPE svg PUBLIC "-//W3C//DTD SVG 1.1//EN" "http://www.w3.org/Graphics/SVG/1.1/DTD/svg11.dtd">
<svg version="1.1" id="Layer_1" xmlns="http://www.w3.org/2000/svg" xmlns:xlink="http://www.w3.org/1999/xlink" x="0px" y="0px"
	 width="160px" height="160px" viewBox="0 0 160 160" enable-background="new 0 0 160 160" xml:space="preserve">
<path fill="#FFFFFF" d="M80.456,1.624c-43.377,0-78.542,35.165-78.542,78.542c0,43.38,35.165,78.543,78.542,78.543
	c43.378,0,78.544-35.163,78.544-78.543C159,36.788,123.834,1.624,80.456,1.624z M53.869,48.896c6.06,0,10.971,4.912,10.971,10.971
	c0,6.059-4.912,10.971-10.971,10.971c-6.06,0-10.972-4.913-10.972-10.971C42.897,53.808,47.809,48.896,53.869,48.896z
	 M104.163,111.438c-6.109-8.043-14.984-13.107-24.865-13.107s-18.754,5.064-24.863,13.107h-8.79
	c7.202-13.142,19.729-21.847,33.992-21.847c14.26,0,26.789,8.705,33.991,21.847H104.163z M104.337,70.838
	c-6.061,0-10.972-4.913-10.972-10.971c0-6.059,4.911-10.971,10.972-10.971s10.971,4.912,10.971,10.971
	C115.308,65.925,110.396,70.838,104.337,70.838z"/>
</svg>
